STARTFONT 2.1
FONT -FontForge-Arcade Normal-Book-R-Normal--8-80-75-75-P-78-ISO10646-1
SIZE 8 75 75
FONTBOUNDINGBOX 7 7 0 0
COMMENT "Generated by fontforge, http://fontforge.sourceforge.net"
COMMENT "(c)1997-2003 Yuji Adachi"
STARTPROPERTIES 40
FOUNDRY "FontForge"
FAMILY_NAME "Arcade Normal"
WEIGHT_NAME "Book"
SLANT "R"
SETWIDTH_NAME "Normal"
ADD_STYLE_NAME ""
PIXEL_SIZE 8
POINT_SIZE 80
RESOLUTION_X 75
RESOLUTION_Y 75
SPACING "P"
AVERAGE_WIDTH 78
CHARSET_REGISTRY "ISO10646"
CHARSET_ENCODING "1"
FONTNAME_REGISTRY ""
CHARSET_COLLECTIONS "ISO10646-1"
FONT_NAME "ArcadeNormal"
FACE_NAME "Arcade Normal"
COPYRIGHT "(c)1997-2003 Yuji Adachi"
FONT_VERSION "Macromedia Fontographer 4.1J 98.12.4"
FONT_ASCENT 7
FONT_DESCENT 1
UNDERLINE_POSITION -1
UNDERLINE_THICKNESS 1
X_HEIGHT 6
CAP_HEIGHT 6
RAW_ASCENT 877
RAW_DESCENT 122
NORM_SPACE 8
RELATIVE_WEIGHT 40
RELATIVE_SETWIDTH 50
SUPERSCRIPT_X 0
SUPERSCRIPT_Y 3
SUPERSCRIPT_SIZE 5
SUBSCRIPT_X 0
SUBSCRIPT_Y 1
SUBSCRIPT_SIZE 5
FIGURE_WIDTH 8
AVG_LOWERCASE_WIDTH 80
AVG_UPPERCASE_WIDTH 80
ENDPROPERTIES
CHARS 114
STARTCHAR space
ENCODING 32
SWIDTH 978 0
DWIDTH 8 0
BBX 1 1 0 0
BITMAP
00
ENDCHAR
STARTCHAR exclam
ENCODING 33
SWIDTH 978 0
DWIDTH 8 0
BBX 2 7 3 0
BITMAP
C0
C0
C0
C0
00
C0
C0
ENDCHAR
STARTCHAR quotedbl
ENCODING 34
SWIDTH 978 0
DWIDTH 8 0
BBX 5 4 1 3
BITMAP
D8
D8
48
90
ENDCHAR
STARTCHAR numbersign
ENCODING 35
SWIDTH 978 0
DWIDTH 8 0
BBX 5 5 1 1
BITMAP
50
F8
50
F8
50
ENDCHAR
STARTCHAR dollar
ENCODING 36
SWIDTH 978 0
DWIDTH 8 0
BBX 5 7 1 0
BITMAP
20
78
A0
70
28
F0
20
ENDCHAR
STARTCHAR percent
ENCODING 37
SWIDTH 978 0
DWIDTH 8 0
BBX 7 7 0 0
BITMAP
42
A4
48
10
24
4A
84
ENDCHAR
STARTCHAR ampersand
ENCODING 38
SWIDTH 978 0
DWIDTH 8 0
BBX 7 7 0 0
BITMAP
70
C8
E8
70
9E
8C
76
ENDCHAR
STARTCHAR quotesingle
ENCODING 39
SWIDTH 978 0
DWIDTH 8 0
BBX 2 4 2 3
BITMAP
C0
C0
40
80
ENDCHAR
STARTCHAR parenleft
ENCODING 40
SWIDTH 978 0
DWIDTH 8 0
BBX 4 7 2 0
BITMAP
30
60
C0
C0
C0
60
30
ENDCHAR
STARTCHAR parenright
ENCODING 41
SWIDTH 978 0
DWIDTH 8 0
BBX 4 7 2 0
BITMAP
C0
60
30
30
30
60
C0
ENDCHAR
STARTCHAR asterisk
ENCODING 42
SWIDTH 978 0
DWIDTH 8 0
BBX 5 5 1 1
BITMAP
20
A8
70
A8
20
ENDCHAR
STARTCHAR plus
ENCODING 43
SWIDTH 978 0
DWIDTH 8 0
BBX 5 5 1 1
BITMAP
20
20
F8
20
20
ENDCHAR
STARTCHAR comma
ENCODING 44
SWIDTH 978 0
DWIDTH 8 0
BBX 2 4 2 0
BITMAP
C0
C0
40
80
ENDCHAR
STARTCHAR hyphen
ENCODING 45
SWIDTH 978 0
DWIDTH 8 0
BBX 5 1 1 3
BITMAP
F8
ENDCHAR
STARTCHAR period
ENCODING 46
SWIDTH 978 0
DWIDTH 8 0
BBX 2 2 2 0
BITMAP
C0
C0
ENDCHAR
STARTCHAR slash
ENCODING 47
SWIDTH 978 0
DWIDTH 8 0
BBX 7 7 0 0
BITMAP
02
04
08
10
20
40
80
ENDCHAR
STARTCHAR zero
ENCODING 48
SWIDTH 978 0
DWIDTH 8 0
BBX 7 7 0 0
BITMAP
38
4C
C6
C6
C6
64
38
ENDCHAR
STARTCHAR one
ENCODING 49
SWIDTH 978 0
DWIDTH 8 0
BBX 6 7 1 0
BITMAP
30
70
30
30
30
30
FC
ENDCHAR
STARTCHAR two
ENCODING 50
SWIDTH 978 0
DWIDTH 8 0
BBX 7 7 0 0
BITMAP
7C
C6
0E
3C
78
E0
FE
ENDCHAR
STARTCHAR three
ENCODING 51
SWIDTH 978 0
DWIDTH 8 0
BBX 7 7 0 0
BITMAP
7E
0C
18
3C
06
C6
7C
ENDCHAR
STARTCHAR four
ENCODING 52
SWIDTH 978 0
DWIDTH 8 0
BBX 7 7 0 0
BITMAP
1C
3C
6C
CC
FE
0C
0C
ENDCHAR
STARTCHAR five
ENCODING 53
SWIDTH 978 0
DWIDTH 8 0
BBX 7 7 0 0
BITMAP
FC
C0
FC
06
06
C6
7C
ENDCHAR
STARTCHAR six
ENCODING 54
SWIDTH 978 0
DWIDTH 8 0
BBX 7 7 0 0
BITMAP
3C
60
C0
FC
C6
C6
7C
ENDCHAR
STARTCHAR seven
ENCODING 55
SWIDTH 978 0
DWIDTH 8 0
BBX 7 7 0 0
BITMAP
FE
C6
0C
18
30
30
30
ENDCHAR
STARTCHAR eight
ENCODING 56
SWIDTH 978 0
DWIDTH 8 0
BBX 7 7 0 0
BITMAP
78
C4
E4
78
9E
86
7C
ENDCHAR
STARTCHAR nine
ENCODING 57
SWIDTH 978 0
DWIDTH 8 0
BBX 7 7 0 0
BITMAP
7C
C6
C6
7E
06
0C
78
ENDCHAR
STARTCHAR colon
ENCODING 58
SWIDTH 501 0
DWIDTH 4 0
BBX 2 6 1 0
BITMAP
C0
C0
00
00
C0
C0
ENDCHAR
STARTCHAR semicolon
ENCODING 59
SWIDTH 978 0
DWIDTH 8 0
BBX 2 7 2 0
BITMAP
C0
C0
00
C0
C0
40
80
ENDCHAR
STARTCHAR less
ENCODING 60
SWIDTH 978 0
DWIDTH 8 0
BBX 4 5 2 1
BITMAP
30
60
C0
60
30
ENDCHAR
STARTCHAR equal
ENCODING 61
SWIDTH 978 0
DWIDTH 8 0
BBX 5 3 1 2
BITMAP
F8
00
F8
ENDCHAR
STARTCHAR greater
ENCODING 62
SWIDTH 978 0
DWIDTH 8 0
BBX 4 5 2 1
BITMAP
C0
60
30
60
C0
ENDCHAR
STARTCHAR question
ENCODING 63
SWIDTH 978 0
DWIDTH 8 0
BBX 7 7 0 0
BITMAP
7C
C6
1C
30
00
30
30
ENDCHAR
STARTCHAR at
ENCODING 64
SWIDTH 978 0
DWIDTH 8 0
BBX 7 7 0 0
BITMAP
7C
C6
F6
D6
FC
C0
7C
ENDCHAR
STARTCHAR A
ENCODING 65
SWIDTH 978 0
DWIDTH 8 0
BBX 7 7 0 0
BITMAP
38
6C
C6
C6
FE
C6
C6
ENDCHAR
STARTCHAR B
ENCODING 66
SWIDTH 978 0
DWIDTH 8 0
BBX 7 7 0 0
BITMAP
FC
C6
C6
FC
C6
C6
FC
ENDCHAR
STARTCHAR C
ENCODING 67
SWIDTH 978 0
DWIDTH 8 0
BBX 7 7 0 0
BITMAP
3C
66
C0
C0
C0
66
3C
ENDCHAR
STARTCHAR D
ENCODING 68
SWIDTH 978 0
DWIDTH 8 0
BBX 7 7 0 0
BITMAP
F8
CC
C6
C6
C6
CC
F8
ENDCHAR
STARTCHAR E
ENCODING 69
SWIDTH 978 0
DWIDTH 8 0
BBX 7 7 0 0
BITMAP
FE
C0
C0
FC
C0
C0
FE
ENDCHAR
STARTCHAR F
ENCODING 70
SWIDTH 978 0
DWIDTH 8 0
BBX 7 7 0 0
BITMAP
FE
C0
C0
FC
C0
C0
C0
ENDCHAR
STARTCHAR G
ENCODING 71
SWIDTH 978 0
DWIDTH 8 0
BBX 7 7 0 0
BITMAP
3E
60
C0
CE
C6
66
3E
ENDCHAR
STARTCHAR H
ENCODING 72
SWIDTH 978 0
DWIDTH 8 0
BBX 7 7 0 0
BITMAP
C6
C6
C6
FE
C6
C6
C6
ENDCHAR
STARTCHAR I
ENCODING 73
SWIDTH 978 0
DWIDTH 8 0
BBX 6 7 1 0
BITMAP
FC
30
30
30
30
30
FC
ENDCHAR
STARTCHAR J
ENCODING 74
SWIDTH 978 0
DWIDTH 8 0
BBX 7 7 0 0
BITMAP
06
06
06
06
C6
C6
7C
ENDCHAR
STARTCHAR K
ENCODING 75
SWIDTH 978 0
DWIDTH 8 0
BBX 7 7 0 0
BITMAP
C6
CC
D8
F0
F8
DC
CE
ENDCHAR
STARTCHAR L
ENCODING 76
SWIDTH 978 0
DWIDTH 8 0
BBX 7 7 0 0
BITMAP
C0
C0
C0
C0
C0
C0
FE
ENDCHAR
STARTCHAR M
ENCODING 77
SWIDTH 978 0
DWIDTH 8 0
BBX 7 7 0 0
BITMAP
C6
EE
FE
FE
D6
C6
C6
ENDCHAR
STARTCHAR N
ENCODING 78
SWIDTH 978 0
DWIDTH 8 0
BBX 7 7 0 0
BITMAP
C6
E6
F6
FE
DE
CE
C6
ENDCHAR
STARTCHAR O
ENCODING 79
SWIDTH 978 0
DWIDTH 8 0
BBX 7 7 0 0
BITMAP
7C
C6
C6
C6
C6
C6
7C
ENDCHAR
STARTCHAR P
ENCODING 80
SWIDTH 978 0
DWIDTH 8 0
BBX 7 7 0 0
BITMAP
FC
C6
C6
C6
FC
C0
C0
ENDCHAR
STARTCHAR Q
ENCODING 81
SWIDTH 978 0
DWIDTH 8 0
BBX 7 7 0 0
BITMAP
7C
C6
C6
C6
DE
CC
7A
ENDCHAR
STARTCHAR R
ENCODING 82
SWIDTH 978 0
DWIDTH 8 0
BBX 7 7 0 0
BITMAP
FC
C6
C6
CE
F8
DC
CE
ENDCHAR
STARTCHAR S
ENCODING 83
SWIDTH 978 0
DWIDTH 8 0
BBX 7 7 0 0
BITMAP
78
CC
C0
7C
06
C6
7C
ENDCHAR
STARTCHAR T
ENCODING 84
SWIDTH 978 0
DWIDTH 8 0
BBX 6 7 1 0
BITMAP
FC
30
30
30
30
30
30
ENDCHAR
STARTCHAR U
ENCODING 85
SWIDTH 978 0
DWIDTH 8 0
BBX 7 7 0 0
BITMAP
C6
C6
C6
C6
C6
C6
7C
ENDCHAR
STARTCHAR V
ENCODING 86
SWIDTH 978 0
DWIDTH 8 0
BBX 7 7 0 0
BITMAP
C6
C6
C6
EE
7C
38
10
ENDCHAR
STARTCHAR W
ENCODING 87
SWIDTH 978 0
DWIDTH 8 0
BBX 7 7 0 0
BITMAP
C6
C6
C6
D6
FE
EE
C6
ENDCHAR
STARTCHAR X
ENCODING 88
SWIDTH 978 0
DWIDTH 8 0
BBX 7 7 0 0
BITMAP
C6
EE
7C
38
7C
EE
C6
ENDCHAR
STARTCHAR Y
ENCODING 89
SWIDTH 978 0
DWIDTH 8 0
BBX 6 7 1 0
BITMAP
CC
CC
CC
78
30
30
30
ENDCHAR
STARTCHAR Z
ENCODING 90
SWIDTH 978 0
DWIDTH 8 0
BBX 7 7 0 0
BITMAP
FE
0E
1C
38
70
E0
FE
ENDCHAR
STARTCHAR bracketleft
ENCODING 91
SWIDTH 978 0
DWIDTH 8 0
BBX 3 7 2 0
BITMAP
E0
C0
C0
C0
C0
C0
E0
ENDCHAR
STARTCHAR backslash
ENCODING 92
SWIDTH 978 0
DWIDTH 8 0
BBX 7 7 0 0
BITMAP
80
40
20
10
08
04
02
ENDCHAR
STARTCHAR bracketright
ENCODING 93
SWIDTH 978 0
DWIDTH 8 0
BBX 3 7 2 0
BITMAP
E0
60
60
60
60
60
E0
ENDCHAR
STARTCHAR asciicircum
ENCODING 94
SWIDTH 978 0
DWIDTH 8 0
BBX 3 2 2 5
BITMAP
40
A0
ENDCHAR
STARTCHAR underscore
ENCODING 95
SWIDTH 978 0
DWIDTH 8 0
BBX 7 1 0 0
BITMAP
FE
ENDCHAR
STARTCHAR grave
ENCODING 96
SWIDTH 978 0
DWIDTH 8 0
BBX 2 2 3 5
BITMAP
80
40
ENDCHAR
STARTCHAR a
ENCODING 97
SWIDTH 978 0
DWIDTH 8 0
BBX 7 7 0 0
BITMAP
38
6C
C6
C6
FE
C6
C6
ENDCHAR
STARTCHAR b
ENCODING 98
SWIDTH 978 0
DWIDTH 8 0
BBX 7 7 0 0
BITMAP
FC
C6
C6
FC
C6
C6
FC
ENDCHAR
STARTCHAR c
ENCODING 99
SWIDTH 978 0
DWIDTH 8 0
BBX 7 7 0 0
BITMAP
3C
66
C0
C0
C0
66
3C
ENDCHAR
STARTCHAR d
ENCODING 100
SWIDTH 978 0
DWIDTH 8 0
BBX 7 7 0 0
BITMAP
F8
CC
C6
C6
C6
CC
F8
ENDCHAR
STARTCHAR e
ENCODING 101
SWIDTH 978 0
DWIDTH 8 0
BBX 7 7 0 0
BITMAP
FE
C0
C0
FC
C0
C0
FE
ENDCHAR
STARTCHAR f
ENCODING 102
SWIDTH 978 0
DWIDTH 8 0
BBX 7 7 0 0
BITMAP
FE
C0
C0
FC
C0
C0
C0
ENDCHAR
STARTCHAR g
ENCODING 103
SWIDTH 978 0
DWIDTH 8 0
BBX 7 7 0 0
BITMAP
3E
60
C0
CE
C6
66
3E
ENDCHAR
STARTCHAR h
ENCODING 104
SWIDTH 978 0
DWIDTH 8 0
BBX 7 7 0 0
BITMAP
C6
C6
C6
FE
C6
C6
C6
ENDCHAR
STARTCHAR i
ENCODING 105
SWIDTH 978 0
DWIDTH 8 0
BBX 6 7 1 0
BITMAP
FC
30
30
30
30
30
FC
ENDCHAR
STARTCHAR j
ENCODING 106
SWIDTH 978 0
DWIDTH 8 0
BBX 7 7 0 0
BITMAP
06
06
06
06
C6
C6
7C
ENDCHAR
STARTCHAR k
ENCODING 107
SWIDTH 978 0
DWIDTH 8 0
BBX 7 7 0 0
BITMAP
C6
CC
D8
F0
F8
DC
CE
ENDCHAR
STARTCHAR l
ENCODING 108
SWIDTH 978 0
DWIDTH 8 0
BBX 7 7 0 0
BITMAP
C0
C0
C0
C0
C0
C0
FE
ENDCHAR
STARTCHAR m
ENCODING 109
SWIDTH 978 0
DWIDTH 8 0
BBX 7 7 0 0
BITMAP
C6
EE
FE
FE
D6
C6
C6
ENDCHAR
STARTCHAR n
ENCODING 110
SWIDTH 978 0
DWIDTH 8 0
BBX 7 7 0 0
BITMAP
C6
E6
F6
FE
DE
CE
C6
ENDCHAR
STARTCHAR o
ENCODING 111
SWIDTH 978 0
DWIDTH 8 0
BBX 7 7 0 0
BITMAP
7C
C6
C6
C6
C6
C6
7C
ENDCHAR
STARTCHAR p
ENCODING 112
SWIDTH 978 0
DWIDTH 8 0
BBX 7 7 0 0
BITMAP
FC
C6
C6
C6
FC
C0
C0
ENDCHAR
STARTCHAR q
ENCODING 113
SWIDTH 978 0
DWIDTH 8 0
BBX 7 7 0 0
BITMAP
7C
C6
C6
C6
DE
CC
7A
ENDCHAR
STARTCHAR r
ENCODING 114
SWIDTH 978 0
DWIDTH 8 0
BBX 7 7 0 0
BITMAP
FC
C6
C6
CE
F8
DC
CE
ENDCHAR
STARTCHAR s
ENCODING 115
SWIDTH 978 0
DWIDTH 8 0
BBX 7 7 0 0
BITMAP
78
CC
C0
7C
06
C6
7C
ENDCHAR
STARTCHAR t
ENCODING 116
SWIDTH 978 0
DWIDTH 8 0
BBX 6 7 1 0
BITMAP
FC
30
30
30
30
30
30
ENDCHAR
STARTCHAR u
ENCODING 117
SWIDTH 978 0
DWIDTH 8 0
BBX 7 7 0 0
BITMAP
C6
C6
C6
C6
C6
C6
7C
ENDCHAR
STARTCHAR v
ENCODING 118
SWIDTH 978 0
DWIDTH 8 0
BBX 7 7 0 0
BITMAP
C6
C6
C6
EE
7C
38
10
ENDCHAR
STARTCHAR w
ENCODING 119
SWIDTH 978 0
DWIDTH 8 0
BBX 7 7 0 0
BITMAP
C6
C6
C6
D6
FE
EE
C6
ENDCHAR
STARTCHAR x
ENCODING 120
SWIDTH 978 0
DWIDTH 8 0
BBX 7 7 0 0
BITMAP
C6
EE
7C
38
7C
EE
C6
ENDCHAR
STARTCHAR y
ENCODING 121
SWIDTH 978 0
DWIDTH 8 0
BBX 6 7 1 0
BITMAP
CC
CC
CC
78
30
30
30
ENDCHAR
STARTCHAR z
ENCODING 122
SWIDTH 978 0
DWIDTH 8 0
BBX 7 7 0 0
BITMAP
FE
0E
1C
38
70
E0
FE
ENDCHAR
STARTCHAR braceleft
ENCODING 123
SWIDTH 978 0
DWIDTH 8 0
BBX 4 7 2 0
BITMAP
30
60
60
C0
60
60
30
ENDCHAR
STARTCHAR bar
ENCODING 124
SWIDTH 978 0
DWIDTH 8 0
BBX 1 7 3 0
BITMAP
80
80
80
80
80
80
80
ENDCHAR
STARTCHAR braceright
ENCODING 125
SWIDTH 978 0
DWIDTH 8 0
BBX 4 7 2 0
BITMAP
C0
60
60
30
60
60
C0
ENDCHAR
STARTCHAR asciitilde
ENCODING 126
SWIDTH 978 0
DWIDTH 8 0
BBX 5 2 1 5
BITMAP
68
B0
ENDCHAR
STARTCHAR nonbreakingspace
ENCODING 160
SWIDTH 978 0
DWIDTH 8 0
BBX 1 1 0 0
BITMAP
00
ENDCHAR
STARTCHAR copyright
ENCODING 169
SWIDTH 978 0
DWIDTH 8 0
BBX 7 7 0 0
BITMAP
7C
82
BA
A2
BA
82
7C
ENDCHAR
STARTCHAR registered
ENCODING 174
SWIDTH 978 0
DWIDTH 8 0
BBX 7 7 0 0
BITMAP
7C
82
BA
A2
A2
82
7C
ENDCHAR
STARTCHAR germandbls
ENCODING 223
SWIDTH 978 0
DWIDTH 8 0
BBX 7 7 0 0
BITMAP
FE
FE
FE
FE
FE
FE
FE
ENDCHAR
STARTCHAR aring
ENCODING 229
SWIDTH 978 0
DWIDTH 8 0
BBX 7 7 0 0
BITMAP
10
38
38
38
FE
FE
FE
ENDCHAR
STARTCHAR florin
ENCODING 402
SWIDTH 978 0
DWIDTH 8 0
BBX 5 7 1 0
BITMAP
80
E0
F8
E0
80
80
80
ENDCHAR
STARTCHAR pi
ENCODING 960
SWIDTH 978 0
DWIDTH 8 0
BBX 7 7 0 0
BITMAP
7C
82
BA
AA
BA
A2
7C
ENDCHAR
STARTCHAR hyphenminus
ENCODING 8208
SWIDTH 978 0
DWIDTH 8 0
BBX 1 1 0 0
BITMAP
00
ENDCHAR
STARTCHAR quoteleft
ENCODING 8216
SWIDTH 978 0
DWIDTH 8 0
BBX 2 4 3 3
BITMAP
40
80
C0
C0
ENDCHAR
STARTCHAR quoteright
ENCODING 8217
SWIDTH 978 0
DWIDTH 8 0
BBX 2 4 3 3
BITMAP
C0
C0
40
80
ENDCHAR
STARTCHAR quotedblleft
ENCODING 8220
SWIDTH 978 0
DWIDTH 8 0
BBX 5 4 1 3
BITMAP
48
90
D8
D8
ENDCHAR
STARTCHAR quotedblright
ENCODING 8221
SWIDTH 978 0
DWIDTH 8 0
BBX 5 4 1 3
BITMAP
D8
D8
48
90
ENDCHAR
STARTCHAR bullet
ENCODING 8226
SWIDTH 978 0
DWIDTH 8 0
BBX 2 2 3 2
BITMAP
C0
C0
ENDCHAR
STARTCHAR trademark
ENCODING 8482
SWIDTH 978 0
DWIDTH 8 0
BBX 7 4 0 3
BITMAP
EA
4E
4A
4A
ENDCHAR
STARTCHAR .notdef
ENCODING -1
SWIDTH 978 0
DWIDTH 8 0
BBX 6 7 1 0
BITMAP
FC
84
84
84
84
84
FC
ENDCHAR
STARTCHAR .null
ENCODING -1
SWIDTH 0 0
DWIDTH 0 0
BBX 1 1 0 0
BITMAP
00
ENDCHAR
STARTCHAR nonmarkingreturn
ENCODING -1
SWIDTH 978 0
DWIDTH 8 0
BBX 1 1 0 0
BITMAP
00
ENDCHAR
STARTCHAR glyph111
ENCODING -1
SWIDTH 978 0
DWIDTH 8 0
BBX 1 1 0 0
BITMAP
00
ENDCHAR
STARTCHAR glyph112
ENCODING -1
SWIDTH 978 0
DWIDTH 8 0
BBX 1 1 0 0
BITMAP
00
ENDCHAR
ENDFONT
